<svg id="visual" viewBox="0 0 900 600" width="900" height="600" xmlns="http://www.w3.org/2000/svg" xmlns:xlink="http://www.w3.org/1999/xlink" version="1.1"><rect x="0" y="0" width="900" height="600" fill="#002233"></rect><path d="M0 486L21.5 473.7C43 461.3 86 436.7 128.8 424.5C171.7 412.3 214.3 412.7 257.2 418.5C300 424.3 343 435.7 385.8 446C428.7 456.3 471.3 465.7 514.2 458.7C557 451.7 600 428.3 642.8 428.3C685.7 428.3 728.3 451.7 771.2 454.5C814 457.3 857 439.7 878.5 430.8L900 422L900 601L878.5 601C857 601 814 601 771.2 601C728.3 601 685.7 601 642.8 601C600 601 557 601 514.2 601C471.3 601 428.7 601 385.8 601C343 601 300 601 257.2 601C214.3 601 171.7 601 128.8 601C86 601 43 601 21.5 601L0 601Z" fill="#0066FF" stroke-linecap="round" stroke-linejoin="miter"></path></svg>